<svg width="24" height="24" viewBox="0 0 24 24" fill="none" xmlns="http://www.w3.org/2000/svg">
<g id="paper-plane 1">
<g id="Icon">
<path id="Vector" fill-rule="evenodd" clip-rule="evenodd" d="M22.7358 3.29705C22.8078 2.82305 22.6058 2.34805 22.2148 2.06905C21.8238 1.79105 21.3088 1.75605 20.8838 1.97905C17.4828 3.76505 5.58577 10.011 1.93177 11.929C1.48077 12.165 1.21477 12.647 1.25377 13.154C1.29277 13.661 1.62877 14.097 2.11077 14.262C3.53377 14.749 5.27277 15.346 7.99977 16.281L18.9998 6.00005L10.0978 17C13.0058 17.997 17.5528 19.556 18.6938 19.9471C19.0508 20.0701 19.4448 20.0271 19.7678 19.8321C20.0908 19.6361 20.3098 19.3071 20.3668 18.9331L22.7358 3.29705Z" fill="white"/>
<path id="Vector_2" fill-rule="evenodd" clip-rule="evenodd" d="M8.83154 17.623V20.893C8.83154 21.395 9.12654 21.85 9.58354 22.055C10.0415 22.261 10.5765 22.179 10.9515 21.845L13.7895 19.323L8.83154 17.623Z" fill="white"/>
</g>
</g>
</svg>
